<svg width="512" height="512" viewBox="0 0 512 512" fill="none" xmlns="http://www.w3.org/2000/svg">
  <path d="M256 48C160 48 80 32 64 32C64 32 64 256 64 272C64 384 144 464 256 496C368 464 448 384 448 272C448 256 448 32 448 32C432 32 352 48 256 48Z" fill="#22C55E" stroke="#16A34A" stroke-width="24" stroke-linejoin="round"/>
  <path d="M256 144C194.133 144 144 194.133 144 256C144 317.867 194.133 368 256 368C317.867 368 368 317.867 368 256C368 194.133 317.867 144 256 144ZM256 336C211.817 336 176 300.183 176 256C176 211.817 211.817 176 256 176C300.183 176 336 211.817 336 256C336 300.183 300.183 336 256 336Z" fill="#DCFCE7"/>
  <circle cx="256" cy="256" r="32" fill="#22C55E"/>
</svg>
